<svg xmlns="http://www.w3.org/2000/svg" xmlns:xlink="http://www.w3.org/1999/xlink" id="processonSvg1000" viewBox="58.013885498046875 69.7881851196289 1179.0 3551.222312927246" width="1179.0" height="3551.222312927246"><defs id="ProcessOnDefs1001"><marker id="ProcessOnMarker1123" markerUnits="userSpaceOnUse" orient="auto" markerWidth="16.23606797749979" markerHeight="10.550836550532098" viewBox="-1.0 -1.3763819204711736 16.23606797749979 10.550836550532098" refX="-1.0" refY="3.8990363547948754"><path id="ProcessOnPath1124" d="M12.0 3.8990363547948754L0.0 7.798072709589751V0.0Z" stroke="#323232" stroke-width="2.0" fill="#323232" transform="matrix(1.0,0.0,0.0,1.0,0.0,0.0)"/></marker><marker id="ProcessOnMarker1144" markerUnits="userSpaceOnUse" orient="auto" markerWidth="16.23606797749979" markerHeight="10.550836550532098" viewBox="-1.0 -1.3763819204711736 16.23606797749979 10.550836550532098" refX="-1.0" refY="3.8990363547948754"><path id="ProcessOnPath1145" d="M12.0 3.8990363547948754L0.0 7.798072709589751V0.0Z" stroke="#323232" stroke-width="2.0" fill="#323232" transform="matrix(1.0,0.0,0.0,1.0,0.0,0.0)"/></marker><marker id="ProcessOnMarker1175" markerUnits="userSpaceOnUse" orient="auto" markerWidth="16.23606797749979" markerHeight="10.550836550532098" viewBox="-1.0 -1.3763819204711736 16.23606797749979 10.550836550532098" refX="-1.0" refY="3.8990363547948754"><path id="ProcessOnPath1176" d="M12.0 3.8990363547948754L0.0 7.798072709589751V0.0Z" stroke="#323232" stroke-width="2.0" fill="#323232" transform="matrix(1.0,0.0,0.0,1.0,0.0,0.0)"/></marker><marker id="ProcessOnMarker1217" markerUnits="userSpaceOnUse" orient="auto" markerWidth="16.23606797749979" markerHeight="10.550836550532098" viewBox="-1.0 -1.3763819204711736 16.23606797749979 10.550836550532098" refX="-1.0" refY="3.8990363547948754"><path id="ProcessOnPath1218" d="M12.0 3.8990363547948754L0.0 7.798072709589751V0.0Z" stroke="#323232" stroke-width="2.0" fill="#323232" transform="matrix(1.0,0.0,0.0,1.0,0.0,0.0)"/></marker></defs><g id="ProcessOnG1002"><path id="ProcessOnPath1003" d="M58.013885498046875 69.7881851196289H1237.0138854980469V3621.010498046875H58.013885498046875V69.7881851196289Z" fill="none"/><g id="ProcessOnG1004"><g id="ProcessOnG1005" transform="matrix(1.0,0.0,0.0,1.0,78.01388549804688,89.7881851196289)" opacity="1.0"><path id="ProcessOnPath1006" d="M0.0 4.0Q0.0 0.0 4.0 0.0L366.0 0.0Q370.0 0.0 370.0 4.0L370.0 30.0Q370.0 34.0 366.0 34.0L4.0 34.0Q0.0 34.0 0.0 30.0Z" stroke="#323232" stroke-width="2.0" stroke-dasharray="none" opacity="1.0" fill="#ffffff"/><g id="ProcessOnG1007" transform="matrix(1.0,0.0,0.0,1.0,10.0,5.125)"><text id="ProcessOnText1008" fill="#000000" font-size="19" x="174.0" y="19.475" font-family="微软雅黑" font-weight="normal" font-style="normal" text-decoration="none" family="微软雅黑" text-anchor="middle" size="19">互联网两个重要基本特点：连通性和共享</text></g></g><g id="ProcessOnG1009" transform="matrix(1.0,0.0,0.0,1.0,78.01388549804688,159.7881851196289)" opacity="1.0"><path id="ProcessOnPath1010" d="M0.0 4.0Q0.0 0.0 4.0 0.0L685.0 0.0Q689.0 0.0 689.0 4.0L689.0 31.0Q689.0 35.0 685.0 35.0L4.0 35.0Q0.0 35.0 0.0 31.0Z" stroke="#323232" stroke-width="2.0" stroke-dasharray="none" opacity="1.0" fill="#ffffff"/><g id="ProcessOnG1011" transform="matrix(1.0,0.0,0.0,1.0,10.0,5.625)"><text id="ProcessOnText1012" fill="#000000" font-size="19" x="333.5" y="19.475" font-family="微软雅黑" font-weight="normal" font-style="normal" text-decoration="none" family="微软雅黑" text-anchor="middle" size="19">电路交换特点：通话的全部时间内，通话的两个用户始终占有端到端的通信资源</text></g></g><g id="ProcessOnG1013" transform="matrix(1.0,0.0,0.0,1.0,78.01388549804688,226.7881851196289)" opacity="1.0"><path id="ProcessOnPath1014" d="M0.0 4.0Q0.0 0.0 4.0 0.0L558.0 0.0Q562.0 0.0 562.0 4.0L562.0 31.00000762939453Q562.0 35.00000762939453 558.0 35.00000762939453L4.0 35.00000762939453Q0.0 35.00000762939453 0.0 31.00000762939453Z" stroke="#323232" stroke-width="2.0" stroke-dasharray="none" opacity="1.0" fill="#ffffff"/><g id="ProcessOnG1015" transform="matrix(1.0,0.0,0.0,1.0,10.0,5.625003814697266)"><text id="ProcessOnText1016" fill="#000000" font-size="19" x="270.0" y="19.475" font-family="微软雅黑" font-weight="normal" font-style="normal" text-decoration="none" family="微软雅黑" text-anchor="middle" size="19">分组传输的过程中动态分配传输带宽，对通信链路是逐段占用</text></g></g><g id="ProcessOnG1017" transform="matrix(1.0,0.0,0.0,1.0,78.01388549804688,290.7881851196289)" opacity="1.0"><path id="ProcessOnPath1018" d="M0.0 4.0Q0.0 0.0 4.0 0.0L576.0 0.0Q580.0 0.0 580.0 4.0L580.0 32.0Q580.0 36.0 576.0 36.0L4.0 36.0Q0.0 36.0 0.0 32.0Z" stroke="#323232" stroke-width="2.0" stroke-dasharray="none" opacity="1.0" fill="#ffffff"/><g id="ProcessOnG1019" transform="matrix(1.0,0.0,0.0,1.0,10.0,6.125)"><text id="ProcessOnText1020" fill="#000000" font-size="19" x="279.0" y="19.475" font-family="微软雅黑" font-weight="normal" font-style="normal" text-decoration="none" family="微软雅黑" text-anchor="middle" size="19">在高速网络链路中，提高的仅仅是数据的发送速率而不是传播速率</text></g></g><g id="ProcessOnG1021" transform="matrix(1.0,0.0,0.0,1.0,78.01388549804688,352.7881851196289)" opacity="1.0"><path id="ProcessOnPath1022" d="M0.0 4.0Q0.0 0.0 4.0 0.0L439.0 0.0Q443.0 0.0 443.0 4.0L443.0 27.0Q443.0 31.0 439.0 31.0L4.0 31.0Q0.0 31.0 0.0 27.0Z" stroke="#323232" stroke-width="2.0" stroke-dasharray="none" opacity="1.0" fill="#ffffff"/><g id="ProcessOnG1023" transform="matrix(1.0,0.0,0.0,1.0,10.0,3.625)"><text id="ProcessOnText1024" fill="#000000" font-size="19" x="210.5" y="19.475" font-family="微软雅黑" font-weight="normal" font-style="normal" text-decoration="none" family="微软雅黑" text-anchor="middle" size="19">链路的时延带宽积又称为以比特为单位的链路长度</text></g></g><g id="ProcessOnG1025" transform="matrix(1.0,0.0,0.0,1.0,78.01388549804688,407.7881851196289)" opacity="1.0"><path id="ProcessOnPath1026" d="M0.0 4.0Q0.0 0.0 4.0 0.0L685.0 0.0Q689.0 0.0 689.0 4.0L689.0 26.0Q689.0 30.0 685.0 30.0L4.0 30.0Q0.0 30.0 0.0 26.0Z" stroke="#323232" stroke-width="2.0" stroke-dasharray="none" opacity="1.0" fill="#ffffff"/><g id="ProcessOnG1027" transform="matrix(1.0,0.0,0.0,1.0,10.0,3.125)"><text id="ProcessOnText1028" fill="#000000" font-size="19" x="333.5" y="19.475" font-family="微软雅黑" font-weight="normal" font-style="normal" text-decoration="none" family="微软雅黑" text-anchor="middle" size="19">D = Do/（1-U） Do表示网络空闲时的时延，D表示网络当前时延，U为利用率</text></g></g><g id="ProcessOnG1029" transform="matrix(1.0,0.0,0.0,1.0,78.01388549804688,463.7881851196289)" opacity="1.0"><path id="ProcessOnPath1030" d="M0.0 4.0Q0.0 0.0 4.0 0.0L400.0 0.0Q404.0 0.0 404.0 4.0L404.0 28.0Q404.0 32.0 400.0 32.0L4.0 32.0Q0.0 32.0 0.0 28.0Z" stroke="#323232" stroke-width="2.0" stroke-dasharray="none" opacity="1.0" fill="#ffffff"/><g id="ProcessOnG1031" transform="matrix(1.0,0.0,0.0,1.0,10.0,4.125)"><text id="ProcessOnText1032" fill="#000000" font-size="19" x="191.0" y="19.475" font-family="微软雅黑" font-weight="normal" font-style="normal" text-decoration="none" family="微软雅黑" text-anchor="middle" size="19">信道或网络的利用率过高会产生非常大的时延</text></g></g><g id="ProcessOnG1033" transform="matrix(1.0,0.0,0.0,1.0,78.01388549804688,524.7881851196289)" opacity="1.0"><path id="ProcessOnPath1034" d="M0.0 4.0Q0.0 0.0 4.0 0.0L803.0 0.0Q807.0 0.0 807.0 4.0L807.0 30.22223663330078Q807.0 34.22223663330078 803.0 34.22223663330078L4.0 34.22223663330078Q0.0 34.22223663330078 0.0 30.22223663330078Z" stroke="#323232" stroke-width="2.0" stroke-dasharray="none" opacity="1.0" fill="#ffffff"/><g id="ProcessOnG1035" transform="matrix(1.0,0.0,0.0,1.0,10.0,5.236118316650391)"><text id="ProcessOnText1036" fill="#000000" font-size="19" x="392.5" y="19.475" font-family="微软雅黑" font-weight="normal" font-style="normal" text-decoration="none" family="微软雅黑" text-anchor="middle" size="19">开放系统互连基本参考模型OSI/RM（Open System Interconnection Reference Model）</text></g></g><g id="ProcessOnG1037" transform="matrix(1.0,0.0,0.0,1.0,78.01388549804688,585.0104217529297)" opacity="1.0"><path id="ProcessOnPath1038" d="M0.0 4.0Q0.0 0.0 4.0 0.0L532.0 0.0Q536.0 0.0 536.0 4.0L536.0 108.22224426269531Q536.0 112.22224426269531 532.0 112.22224426269531L4.0 112.22224426269531Q0.0 112.22224426269531 0.0 108.22224426269531Z" stroke="#323232" stroke-width="2.0" stroke-dasharray="none" opacity="1.0" fill="#ffffff"/><g id="ProcessOnG1039" transform="matrix(1.0,0.0,0.0,1.0,10.0,8.611122131347656)"><text id="ProcessOnText1040" fill="#000000" font-size="19" x="0.0" y="19.475" font-family="微软雅黑" font-weight="normal" font-style="normal" text-decoration="none" family="微软雅黑" text-anchor="start" size="19">网络协议包括：</text><text id="ProcessOnText1041" fill="#000000" font-size="19" x="0.0" y="43.225" font-family="微软雅黑" font-weight="normal" font-style="normal" text-decoration="none" family="微软雅黑" text-anchor="start" size="19">语法：数据与控制信息的结果或格式</text><text id="ProcessOnText1042" fill="#000000" font-size="19" x="0.0" y="66.975" font-family="微软雅黑" font-weight="normal" font-style="normal" text-decoration="none" family="微软雅黑" text-anchor="start" size="19">语义：需要发出何种控制信息，完成何种动作，做出何种响应</text><text id="ProcessOnText1043" fill="#000000" font-size="19" x="0.0" y="90.725" font-family="微软雅黑" font-weight="normal" font-style="normal" text-decoration="none" family="微软雅黑" text-anchor="start" size="19">同步：事件实现顺序的详细说明</text></g></g><g id="ProcessOnG1044" transform="matrix(1.0,0.0,0.0,1.0,78.01388549804688,724.0104217529297)" opacity="1.0"><path id="ProcessOnPath1045" d="M0.0 4.0Q0.0 0.0 4.0 0.0L685.0 0.0Q689.0 0.0 689.0 4.0L689.0 149.2222442626953Q689.0 153.2222442626953 685.0 153.2222442626953L4.0 153.2222442626953Q0.0 153.2222442626953 0.0 149.2222442626953Z" stroke="#323232" stroke-width="2.0" stroke-dasharray="none" opacity="1.0" fill="#ffffff"/><g id="ProcessOnG1046" transform="matrix(1.0,0.0,0.0,1.0,10.0,5.361122131347656)"><text id="ProcessOnText1047" fill="#000000" font-size="19" x="0.0" y="19.475" font-family="微软雅黑" font-weight="normal" font-style="normal" text-decoration="none" family="微软雅黑" text-anchor="start" size="19">网络各层需要完成的任务：</text><text id="ProcessOnText1048" fill="#000000" font-size="19" x="0.0" y="43.225" font-family="微软雅黑" font-weight="normal" font-style="normal" text-decoration="none" family="微软雅黑" text-anchor="start" size="19">①差错控制：使对应层次对等方的通信更可靠</text><text id="ProcessOnText1049" fill="#000000" font-size="19" x="0.0" y="66.975" font-family="微软雅黑" font-weight="normal" font-style="normal" text-decoration="none" family="微软雅黑" text-anchor="start" size="19">②流量控制：发送端的发送速率必须使接收端来得及接收</text><text id="ProcessOnText1050" fill="#000000" font-size="19" x="0.0" y="90.725" font-family="微软雅黑" font-weight="normal" font-style="normal" text-decoration="none" family="微软雅黑" text-anchor="start" size="19">③分段和重装：发送端将发送的数据块划分为更小的单位，在接收端将其还原</text><text id="ProcessOnText1051" fill="#000000" font-size="19" x="0.0" y="114.475" font-family="微软雅黑" font-weight="normal" font-style="normal" text-decoration="none" family="微软雅黑" text-anchor="start" size="19">④复用和分用：发送端几个高层会话复用一条低层的连接，在接收端再进行分用</text><text id="ProcessOnText1052" fill="#000000" font-size="19" x="0.0" y="138.225" font-family="微软雅黑" font-weight="normal" font-style="normal" text-decoration="none" family="微软雅黑" text-anchor="start" size="19">⑤连接建立和释放：交换数据前先建立一条逻辑连接，数据传输结束后释放连接</text></g></g><g id="ProcessOnG1053" transform="matrix(1.0,0.0,0.0,1.0,78.01388549804688,909.5659790039062)" opacity="1.0"><path id="ProcessOnPath1054" d="M0.0 4.0Q0.0 0.0 4.0 0.0L762.0 0.0Q766.0 0.0 766.0 4.0L766.0 84.0Q766.0 88.0 762.0 88.0L4.0 88.0Q0.0 88.0 0.0 84.0Z" stroke="#323232" stroke-width="2.0" stroke-dasharray="none" opacity="1.0" fill="#ffffff"/><g id="ProcessOnG1055" transform="matrix(1.0,0.0,0.0,1.0,10.0,8.375)"><text id="ProcessOnText1056" fill="#000000" font-size="19" x="372.0" y="19.475" font-family="微软雅黑" font-weight="normal" font-style="normal" text-decoration="none" family="微软雅黑" text-anchor="middle" size="19">OSI为7层网络结构：物理层、数据链路层、网络层、运输层、会话层、表示层和应用层</text><text id="ProcessOnText1057" fill="#000000" font-size="19" x="372.0" y="43.225" font-family="微软雅黑" font-weight="normal" font-style="normal" text-decoration="none" family="微软雅黑" text-anchor="middle" size="19">TCP/IP为四层网络结构：网络接口层、网际层、运输层和应用层</text><text id="ProcessOnText1058" fill="#000000" font-size="19" x="372.0" y="66.975" font-family="微软雅黑" font-weight="normal" font-style="normal" text-decoration="none" family="微软雅黑" text-anchor="middle" size="19">教学网络结构为五层：物理层、数据链路层、网络层、运输层和应用层</text></g></g><g id="ProcessOnG1059" transform="matrix(1.0,0.0,0.0,1.0,78.01388549804688,1031.5659790039062)" opacity="1.0"><path id="ProcessOnPath1060" d="M0.0 4.0Q0.0 0.0 4.0 0.0L643.0 0.0Q647.0 0.0 647.0 4.0L647.0 29.0Q647.0 33.0 643.0 33.0L4.0 33.0Q0.0 33.0 0.0 29.0Z" stroke="#323232" stroke-width="2.0" stroke-dasharray="none" opacity="1.0" fill="#ffffff"/><g id="ProcessOnG1061" transform="matrix(1.0,0.0,0.0,1.0,10.0,4.625)"><text id="ProcessOnText1062" fill="#000000" font-size="19" x="312.5" y="19.475" font-family="微软雅黑" font-weight="normal" font-style="normal" text-decoration="none" family="微软雅黑" text-anchor="middle" size="19">OSI参考模型把对等层次之间传送的数据单位称为该层的协议数据单元PDU</text></g></g><g id="ProcessOnG1063" transform="matrix(1.0,0.0,0.0,1.0,78.01388549804688,1092.5659790039062)" opacity="1.0"><path id="ProcessOnPath1064" d="M0.0 4.0Q0.0 0.0 4.0 0.0L726.0 0.0Q730.0 0.0 730.0 4.0L730.0 100.11114501953125Q730.0 104.11114501953125 726.0 104.11114501953125L4.0 104.11114501953125Q0.0 104.11114501953125 0.0 100.11114501953125Z" stroke="#323232" stroke-width="2.0" stroke-dasharray="none" opacity="1.0" fill="#ffffff"/><g id="ProcessOnG1065" transform="matrix(1.0,0.0,0.0,1.0,10.0,4.555572509765625)"><text id="ProcessOnText1066" fill="#000000" font-size="19" x="0.0" y="19.475" font-family="微软雅黑" font-weight="normal" font-style="normal" text-decoration="none" family="微软雅黑" text-anchor="start" size="19">协议是控制两个对等实体（或多个实体）进行通信的规则的集合。在协议的控制下，</text><text id="ProcessOnText1067" fill="#000000" font-size="19" x="0.0" y="43.225" font-family="微软雅黑" font-weight="normal" font-style="normal" text-decoration="none" family="微软雅黑" text-anchor="start" size="19">两个对等实体间的通信使本层能向上一层提供服务。使用本层服务的实体只能看见服</text><text id="ProcessOnText1068" fill="#000000" font-size="19" x="0.0" y="66.975" font-family="微软雅黑" font-weight="normal" font-style="normal" text-decoration="none" family="微软雅黑" text-anchor="start" size="19">务而无法看见下面的协议。协议是“水平的”，而服务是“垂直的”。相邻两层的实</text><text id="ProcessOnText1069" fill="#000000" font-size="19" x="0.0" y="90.725" font-family="微软雅黑" font-weight="normal" font-style="normal" text-decoration="none" family="微软雅黑" text-anchor="start" size="19">体进行交互的地方，称为服务访问点SAP，实际上就是一个逻辑接口。</text></g></g><g id="ProcessOnG1070" transform="matrix(1.0,0.0,0.0,1.0,78.01388549804688,1232.5659790039062)" opacity="1.0"><path id="ProcessOnPath1071" d="M0.0 4.0Q0.0 0.0 4.0 0.0L749.0 0.0Q753.0 0.0 753.0 4.0L753.0 102.11114501953125Q753.0 106.11114501953125 749.0 106.11114501953125L4.0 106.11114501953125Q0.0 106.11114501953125 0.0 102.11114501953125Z" stroke="#323232" stroke-width="2.0" stroke-dasharray="none" opacity="1.0" fill="#ffffff"/><g id="ProcessOnG1072" transform="matrix(1.0,0.0,0.0,1.0,10.0,5.555572509765625)"><text id="ProcessOnText1073" fill="#000000" font-size="19" x="0.0" y="19.475" font-family="微软雅黑" font-weight="normal" font-style="normal" text-decoration="none" family="微软雅黑" text-anchor="start" size="19">在TCP/IP协议中，某些应用程序可以直接使用IP层或甚至直接使用最下面的网络接口层</text><text id="ProcessOnText1074" fill="#000000" font-size="19" x="0.0" y="43.225" font-family="微软雅黑" font-weight="normal" font-style="normal" text-decoration="none" family="微软雅黑" text-anchor="start" size="19">在分层次画出的表示TCP/IP协议族的图的特点是上下两头大而中间小</text><text id="ProcessOnText1075" fill="#000000" font-size="19" x="0.0" y="66.975" font-family="微软雅黑" font-weight="normal" font-style="normal" text-decoration="none" family="微软雅黑" text-anchor="start" size="19">TCP/IP协议可以为各式各样的应用提供服务（everything over IP）</text><text id="ProcessOnText1076" fill="#000000" font-size="19" x="0.0" y="90.725" font-family="微软雅黑" font-weight="normal" font-style="normal" text-decoration="none" family="微软雅黑" text-anchor="start" size="19">TCP/IP协议允许IP协议在各式各样的网络构成的互联网上运行（IP over everthing）</text></g></g><g id="ProcessOnG1077" transform="matrix(1.0,0.0,0.0,1.0,78.01388549804688,1375.5659790039062)" opacity="1.0"><path id="ProcessOnPath1078" d="M0.0 4.0Q0.0 0.0 4.0 0.0L837.0 0.0Q841.0 0.0 841.0 4.0L841.0 136.44451904296875Q841.0 140.44451904296875 837.0 140.44451904296875L4.0 140.44451904296875Q0.0 140.44451904296875 0.0 136.44451904296875Z" stroke="#323232" stroke-width="2.0" stroke-dasharray="none" opacity="1.0" fill="#ffffff"/><g id="ProcessOnG1079" transform="matrix(1.0,0.0,0.0,1.0,10.0,10.847259521484375)"><text id="ProcessOnText1080" fill="#000000" font-size="19" x="0.0" y="19.475" font-family="微软雅黑" font-weight="normal" font-style="normal" text-decoration="none" family="微软雅黑" text-anchor="start" size="19">来自信源的信号常称为基带信号（基本频带信号），往往含有较多的低频成分</text><text id="ProcessOnText1081" fill="#000000" font-size="19" x="0.0" y="43.225" font-family="微软雅黑" font-weight="normal" font-style="normal" text-decoration="none" family="微软雅黑" text-anchor="start" size="19">甚至有直流成分，必须对基带信号进行调制（modulation）</text><text id="ProcessOnText1082" fill="#000000" font-size="19" x="0.0" y="66.975" font-family="微软雅黑" font-weight="normal" font-style="normal" text-decoration="none" family="微软雅黑" text-anchor="start" size="19">基带调制：仅仅对基带信号的波形进行变换，使它能够与信道特性相适应，变换后仍然是基带信号</text><text id="ProcessOnText1083" fill="#000000" font-size="19" x="0.0" y="90.725" font-family="微软雅黑" font-weight="normal" font-style="normal" text-decoration="none" family="微软雅黑" text-anchor="start" size="19">带通调制：使用载波（carrier）进行调制，把基带信号的频率范围搬移到较高的频段</text><text id="ProcessOnText1084" fill="#000000" font-size="19" x="0.0" y="114.475" font-family="微软雅黑" font-weight="normal" font-style="normal" text-decoration="none" family="微软雅黑" text-anchor="start" size="19">并转换为模拟信号，经过载波调制后的信号称为带通信号</text></g></g><g id="ProcessOnG1085" transform="matrix(1.0,0.0,0.0,1.0,78.01388549804688,1555.5659790039062)" opacity="1.0"><path id="ProcessOnPath1086" d="M0.0 4.0Q0.0 0.0 4.0 0.0L873.0 0.0Q877.0 0.0 877.0 4.0L877.0 125.44451904296875Q877.0 129.44451904296875 873.0 129.44451904296875L4.0 129.44451904296875Q0.0 129.44451904296875 0.0 125.44451904296875Z" stroke="#323232" stroke-width="2.0" stroke-dasharray="none" opacity="1.0" fill="#ffffff"/><g id="ProcessOnG1087" transform="matrix(1.0,0.0,0.0,1.0,10.0,5.347259521484375)"><text id="ProcessOnText1088" fill="#000000" font-size="19" x="0.0" y="19.475" font-family="微软雅黑" font-weight="normal" font-style="normal" text-decoration="none" family="微软雅黑" text-anchor="start" size="19">信道当中的码元传输的速率越高，或信号传输的距离越远</text><text id="ProcessOnText1089" fill="#000000" font-size="19" x="0.0" y="43.225" font-family="微软雅黑" font-weight="normal" font-style="normal" text-decoration="none" family="微软雅黑" text-anchor="start" size="19">或噪声干扰越大，或传输媒体质量越差，在接收端的波形失真就越严重。</text><text id="ProcessOnText1090" fill="#000000" font-size="19" x="0.0" y="66.975" font-family="微软雅黑" font-weight="normal" font-style="normal" text-decoration="none" family="微软雅黑" text-anchor="start" size="19">具体的信道所能通过的频率范围是有限的，信号中的许多高频分量往往不能通过信道。</text><text id="ProcessOnText1091" fill="#000000" font-size="19" x="0.0" y="90.725" font-family="微软雅黑" font-weight="normal" font-style="normal" text-decoration="none" family="微软雅黑" text-anchor="start" size="19">接收端收到的信号波形就失去了码元之间的清晰界限，这种现象叫码间串扰。</text><text id="ProcessOnText1092" fill="#000000" font-size="19" x="0.0" y="114.475" font-family="微软雅黑" font-weight="normal" font-style="normal" text-decoration="none" family="微软雅黑" text-anchor="start" size="19">奈奎斯特曾推导出著名的奈氏准则，在假定理想的条件下，为了避免码间干扰，码元传输速率的上限。</text></g></g><g id="ProcessOnG1093" transform="matrix(1.0,0.0,0.0,1.0,78.01388549804688,1725.5659790039062)" opacity="1.0"><path id="ProcessOnPath1094" d="M0.0 4.0Q0.0 0.0 4.0 0.0L837.0 0.0Q841.0 0.0 841.0 4.0L841.0 182.88897705078125Q841.0 186.88897705078125 837.0 186.88897705078125L4.0 186.88897705078125Q0.0 186.88897705078125 0.0 182.88897705078125Z" stroke="#323232" stroke-width="2.0" stroke-dasharray="none" opacity="1.0" fill="#ffffff"/><g id="ProcessOnG1095" transform="matrix(1.0,0.0,0.0,1.0,10.0,10.319488525390625)"><text id="ProcessOnText1096" fill="#000000" font-size="19" x="0.0" y="19.475" font-family="微软雅黑" font-weight="normal" font-style="normal" text-decoration="none" family="微软雅黑" text-anchor="start" size="19">信噪比就是信号的平均功率和噪声的平均功率之比。常记为：S/N，用分贝（dB）作为度量单位。</text><text id="ProcessOnText1097" fill="#000000" font-size="19" x="0.0" y="43.225" font-family="微软雅黑" font-weight="normal" font-style="normal" text-decoration="none" family="微软雅黑" text-anchor="start" size="19">信噪比（dB） = 10*log10（S/N）</text><text id="ProcessOnText1098" fill="#000000" font-size="19" x="0.0" y="66.975" font-family="微软雅黑" font-weight="normal" font-style="normal" text-decoration="none" family="微软雅黑" text-anchor="start" size="19">信息论的创始人香农推导出香农公式：信道的极限信息传输速率C：</text><text id="ProcessOnText1099" fill="#000000" font-size="19" x="0.0" y="90.725" font-family="微软雅黑" font-weight="normal" font-style="normal" text-decoration="none" family="微软雅黑" text-anchor="start" size="19">C = W*log2（1+S/N）（bit/s）</text><text id="ProcessOnText1100" fill="#000000" font-size="19" x="0.0" y="114.475" font-family="微软雅黑" font-weight="normal" font-style="normal" text-decoration="none" family="微软雅黑" text-anchor="start" size="19">W为信道的带宽，以Hz为单位；S为信道内信号的平均功率，N为信道内噪声的功率。</text><text id="ProcessOnText1101" fill="#000000" font-size="19" x="0.0" y="138.225" font-family="微软雅黑" font-weight="normal" font-style="normal" text-decoration="none" family="微软雅黑" text-anchor="start" size="19">香农公式表明：信道的带宽或信噪比越大，信息的极限传输速率就越高。</text><text id="ProcessOnText1102" fill="#000000" font-size="19" x="0.0" y="161.975" font-family="微软雅黑" font-weight="normal" font-style="normal" text-decoration="none" family="微软雅黑" text-anchor="start" size="19">只要信息传输速率低于信道的极限信息传输速率，就一定存在某种办法实现无差错传输。</text></g></g><g id="ProcessOnG1103" transform="matrix(1.0,0.0,0.0,1.0,78.01388549804688,2074.4549560546875)" opacity="1.0"><path id="ProcessOnPath1104" d="M0.0 4.0Q0.0 0.0 4.0 0.0L156.0 0.0Q160.0 0.0 160.0 4.0L160.0 36.0Q160.0 40.0 156.0 40.0L4.0 40.0Q0.0 40.0 0.0 36.0Z" stroke="#323232" stroke-width="2.0" stroke-dasharray="none" opacity="1.0" fill="#ffffff"/><g id="ProcessOnG1105" transform="matrix(1.0,0.0,0.0,1.0,10.0,8.125)"><text id="ProcessOnText1106" fill="#000000" font-size="19" x="69.0" y="19.475" font-family="微软雅黑" font-weight="normal" font-style="normal" text-decoration="none" family="微软雅黑" text-anchor="middle" size="19">导引型传输媒体</text></g></g><g id="ProcessOnG1107" transform="matrix(1.0,0.0,0.0,1.0,333.0138854980469,1960.4549560546875)" opacity="1.0"><path id="ProcessOnPath1108" d="M18.0 0.0L0.0 15.0L0.0 253.0L18.0 268.0M645.0 268.0L663.0 253.0L663.0 15.0L645.0 0.0" stroke="#323232" stroke-width="2.0" stroke-dasharray="none" opacity="1.0" fill="none"/><path id="ProcessOnPath1109" d="M0.0 0.0L663.0 0.0L663.0 268.0L0.0 268.0Z" stroke="none" stroke-width="0.0" stroke-dasharray="none" opacity="1.0" fill="none"/><g id="ProcessOnG1110" transform="matrix(1.0,0.0,0.0,1.0,10.0,15.25)"><text id="ProcessOnText1111" fill="#000000" font-size="19" x="320.5" y="19.475" font-family="微软雅黑" font-weight="normal" font-style="normal" text-decoration="none" family="微软雅黑" text-anchor="middle" size="19">双绞线：最古老，最常用</text><text id="ProcessOnText1112" fill="#000000" font-size="19" x="320.5" y="43.225" font-family="微软雅黑" font-weight="normal" font-style="normal" text-decoration="none" family="微软雅黑" text-anchor="middle" size="19">两根互相绝缘的铜导线并放在一起，用规则的方法绞合起来</text><text id="ProcessOnText1113" fill="#000000" font-size="19" x="320.5" y="66.975" font-family="微软雅黑" font-weight="normal" font-style="normal" text-decoration="none" family="微软雅黑" text-anchor="middle" size="19">对于模拟传输：距离太长时用放大器；对于数字传输：用中继器进行整形”</text><text id="ProcessOnText1114" fill="#000000" font-size="19" x="320.5" y="90.725" font-family="微软雅黑" font-weight="normal" font-style="normal" text-decoration="none" family="微软雅黑" text-anchor="middle" size="19"></text><text id="ProcessOnText1115" fill="#000000" font-size="19" x="320.5" y="114.475" font-family="微软雅黑" font-weight="normal" font-style="normal" text-decoration="none" family="微软雅黑" text-anchor="middle" size="19">同轴电缆：主要用在有线电视网的居民小区中</text><text id="ProcessOnText1116" fill="#000000" font-size="19" x="320.5" y="138.225" font-family="微软雅黑" font-weight="normal" font-style="normal" text-decoration="none" family="微软雅黑" text-anchor="middle" size="19"></text><text id="ProcessOnText1117" fill="#000000" font-size="19" x="320.5" y="161.975" font-family="微软雅黑" font-weight="normal" font-style="normal" text-decoration="none" family="微软雅黑" text-anchor="middle" size="19">光纤：当光从高折射率媒体射向低折射率媒体时，折射角会大于入射角</text><text id="ProcessOnText1118" fill="#000000" font-size="19" x="320.5" y="185.725" font-family="微软雅黑" font-weight="normal" font-style="normal" text-decoration="none" family="微软雅黑" text-anchor="middle" size="19">如果入射角足够大，就会出现全反射，即光线碰到包层时就会折射回纤芯</text><text id="ProcessOnText1119" fill="#000000" font-size="19" x="320.5" y="209.475" font-family="微软雅黑" font-weight="normal" font-style="normal" text-decoration="none" family="微软雅黑" text-anchor="middle" size="19">可以存在多条不同角度入射的光线在一条光纤中传输，称为多模光纤</text><text id="ProcessOnText1120" fill="#000000" font-size="19" x="320.5" y="233.225" font-family="微软雅黑" font-weight="normal" font-style="normal" text-decoration="none" family="微软雅黑" text-anchor="middle" size="19">若光纤的直径减小到一个光的波长，光纤变成一根波导，称为单模光纤</text></g></g><g id="ProcessOnG1121"><path id="ProcessOnPath1122" d="M238.01388549804688 2094.4549560546875L285.5138854980469 2094.4549560546875L285.5138854980469 2094.4549560546875L317.7778175205471 2094.4549560546875" stroke="#323232" stroke-width="2.0" stroke-dasharray="none" fill="none" marker-end="url(#ProcessOnMarker1123)"/></g><g id="ProcessOnG1125" transform="matrix(1.0,0.0,0.0,1.0,78.01388549804688,2383.6216430664062)" opacity="1.0"><path id="ProcessOnPath1126" d="M0.0 4.0Q0.0 0.0 4.0 0.0L186.0 0.0Q190.0 0.0 190.0 4.0L190.0 36.0Q190.0 40.0 186.0 40.0L4.0 40.0Q0.0 40.0 0.0 36.0Z" stroke="#323232" stroke-width="2.0" stroke-dasharray="none" opacity="1.0" fill="#ffffff"/><g id="ProcessOnG1127" transform="matrix(1.0,0.0,0.0,1.0,10.0,8.125)"><text id="ProcessOnText1128" fill="#000000" font-size="19" x="84.0" y="19.475" font-family="微软雅黑" font-weight="normal" font-style="normal" text-decoration="none" family="微软雅黑" text-anchor="middle" size="19">非导引型传输媒体</text></g></g><g id="ProcessOnG1129" transform="matrix(1.0,0.0,0.0,1.0,333.0138854980469,2288.4549560546875)" opacity="1.0"><path id="ProcessOnPath1130" d="M18.0 0.0L0.0 15.0L0.0 215.3333740234375L18.0 230.3333740234375M805.0 230.3333740234375L823.0 215.3333740234375L823.0 15.0L805.0 0.0" stroke="#323232" stroke-width="2.0" stroke-dasharray="none" opacity="1.0" fill="none"/><path id="ProcessOnPath1131" d="M0.0 0.0L823.0 0.0L823.0 230.3333740234375L0.0 230.3333740234375Z" stroke="none" stroke-width="0.0" stroke-dasharray="none" opacity="1.0" fill="none"/><g id="ProcessOnG1132" transform="matrix(1.0,0.0,0.0,1.0,10.0,8.29168701171875)"><text id="ProcessOnText1133" fill="#000000" font-size="19" x="0.0" y="19.475" font-family="微软雅黑" font-weight="normal" font-style="normal" text-decoration="none" family="微软雅黑" text-anchor="start" size="19">短波通信（高频通信）：利用电离层反射，一般是低速传播</text><text id="ProcessOnText1134" fill="#000000" font-size="19" x="0.0" y="43.225" font-family="微软雅黑" font-weight="normal" font-style="normal" text-decoration="none" family="微软雅黑" text-anchor="start" size="19"></text><text id="ProcessOnText1135" fill="#000000" font-size="19" x="0.0" y="66.975" font-family="微软雅黑" font-weight="normal" font-style="normal" text-decoration="none" family="微软雅黑" text-anchor="start" size="19">无线电微波通信：微波会穿越电离层进入宇宙，传统微波通信有两种</text><text id="ProcessOnText1136" fill="#000000" font-size="19" x="0.0" y="90.725" font-family="微软雅黑" font-weight="normal" font-style="normal" text-decoration="none" family="微软雅黑" text-anchor="start" size="19">-----地面微波接力通信：</text><text id="ProcessOnText1137" fill="#000000" font-size="19" x="0.0" y="114.475" font-family="微软雅黑" font-weight="normal" font-style="normal" text-decoration="none" family="微软雅黑" text-anchor="start" size="19">----------通信信道的容量很大，传输质量较高，易于跨越山区、江河</text><text id="ProcessOnText1138" fill="#000000" font-size="19" x="0.0" y="138.225" font-family="微软雅黑" font-weight="normal" font-style="normal" text-decoration="none" family="微软雅黑" text-anchor="start" size="19">----------相邻站之间需要直视，会受到恶劣天气影响，隐蔽性和保密性较差</text><text id="ProcessOnText1139" fill="#000000" font-size="19" x="0.0" y="161.975" font-family="微软雅黑" font-weight="normal" font-style="normal" text-decoration="none" family="微软雅黑" text-anchor="start" size="19">-----卫星通信：</text><text id="ProcessOnText1140" fill="#000000" font-size="19" x="0.0" y="185.725" font-family="微软雅黑" font-weight="normal" font-style="normal" text-decoration="none" family="微软雅黑" text-anchor="start" size="19">----------在地球赤道上空的同步轨道上，等距离的放置3颗相聚120度的卫星可以实现全球通信</text><text id="ProcessOnText1141" fill="#000000" font-size="19" x="0.0" y="209.475" font-family="微软雅黑" font-weight="normal" font-style="normal" text-decoration="none" family="微软雅黑" text-anchor="start" size="19">----------具有较大的传播时延</text></g></g><g id="ProcessOnG1142"><path id="ProcessOnPath1143" d="M268.0138854980469 2403.6216430664062L300.5138854980469 2403.6216430664062L300.5138854980469 2403.6216430664062L317.7778175205471 2403.6216430664062" stroke="#323232" stroke-width="2.0" stroke-dasharray="none" fill="none" marker-end="url(#ProcessOnMarker1144)"/></g><g id="ProcessOnG1146" transform="matrix(1.0,0.0,0.0,1.0,78.01388549804688,2793.3993530273438)" opacity="1.0"><path id="ProcessOnPath1147" d="M0.0 4.0Q0.0 0.0 4.0 0.0L149.0 0.0Q153.0 0.0 153.0 4.0L153.0 36.0Q153.0 40.0 149.0 40.0L4.0 40.0Q0.0 40.0 0.0 36.0Z" stroke="#323232" stroke-width="2.0" stroke-dasharray="none" opacity="1.0" fill="#ffffff"/><g id="ProcessOnG1148" transform="matrix(1.0,0.0,0.0,1.0,10.0,8.125)"><text id="ProcessOnText1149" fill="#000000" font-size="19" x="65.5" y="19.475" font-family="微软雅黑" font-weight="normal" font-style="normal" text-decoration="none" family="微软雅黑" text-anchor="middle" size="19">信道复用技术</text></g></g><g id="ProcessOnG1150" transform="matrix(1.0,0.0,0.0,1.0,333.0138854980469,2575.4549560546875)" opacity="1.0"><path id="ProcessOnPath1151" d="M18.0 0.0L0.0 15.0L0.0 460.8887939453125L18.0 475.8887939453125M866.0 475.8887939453125L884.0 460.8887939453125L884.0 15.0L866.0 0.0" stroke="#323232" stroke-width="2.0" stroke-dasharray="none" opacity="1.0" fill="none"/><path id="ProcessOnPath1152" d="M0.0 0.0L884.0 0.0L884.0 475.8887939453125L0.0 475.8887939453125Z" stroke="none" stroke-width="0.0" stroke-dasharray="none" opacity="1.0" fill="none"/><g id="ProcessOnG1153" transform="matrix(1.0,0.0,0.0,1.0,10.0,12.31939697265625)"><text id="ProcessOnText1154" fill="#000000" font-size="19" x="0.0" y="19.475" font-family="微软雅黑" font-weight="normal" font-style="normal" text-decoration="none" family="微软雅黑" text-anchor="start" size="19">频分复用（Frequency Division Multiplexing）</text><text id="ProcessOnText1155" fill="#000000" font-size="19" x="0.0" y="43.225" font-family="微软雅黑" font-weight="normal" font-style="normal" text-decoration="none" family="微软雅黑" text-anchor="start" size="19">使用频分复用时若每一个用户占用的带宽不变，则当复用的用户数增加时，信道总带宽也跟着变宽</text><text id="ProcessOnText1156" fill="#000000" font-size="19" x="0.0" y="66.975" font-family="微软雅黑" font-weight="normal" font-style="normal" text-decoration="none" family="微软雅黑" text-anchor="start" size="19"></text><text id="ProcessOnText1157" fill="#000000" font-size="19" x="0.0" y="90.725" font-family="微软雅黑" font-weight="normal" font-style="normal" text-decoration="none" family="微软雅黑" text-anchor="start" size="19">时分复用（Time Division Multiplexing）</text><text id="ProcessOnText1158" fill="#000000" font-size="19" x="0.0" y="114.475" font-family="微软雅黑" font-weight="normal" font-style="normal" text-decoration="none" family="微软雅黑" text-anchor="start" size="19">-----同步时分复用（传统时分复用）：不是每个用户都发送消息时，信道利用率不高</text><text id="ProcessOnText1159" fill="#000000" font-size="19" x="0.0" y="138.225" font-family="微软雅黑" font-weight="normal" font-style="normal" text-decoration="none" family="微软雅黑" text-anchor="start" size="19">-----异步时分复用（统计时分复用）（Static TDM）：明显提高信道利用率，需要使用集中器</text><text id="ProcessOnText1160" fill="#000000" font-size="19" x="0.0" y="161.975" font-family="微软雅黑" font-weight="normal" font-style="normal" text-decoration="none" family="微软雅黑" text-anchor="start" size="19">----------统计时分复用使用STDM帧来传送复用的数据，但每一个STDM帧的时隙数小于连接在</text><text id="ProcessOnText1161" fill="#000000" font-size="19" x="0.0" y="185.725" font-family="微软雅黑" font-weight="normal" font-style="normal" text-decoration="none" family="微软雅黑" text-anchor="start" size="19">----------集中器上的用户数。各用户有数据就随时发往集中器的输入缓存，集中器按顺序依次扫</text><text id="ProcessOnText1162" fill="#000000" font-size="19" x="0.0" y="209.475" font-family="微软雅黑" font-weight="normal" font-style="normal" text-decoration="none" family="微软雅黑" text-anchor="start" size="19">----------描输入缓存，把输入进来的数据放入STDM帧中，没有数据就跳过去。它不是固定分配</text><text id="ProcessOnText1163" fill="#000000" font-size="19" x="0.0" y="233.225" font-family="微软雅黑" font-weight="normal" font-style="normal" text-decoration="none" family="微软雅黑" text-anchor="start" size="19">----------时隙，而是按需动态分配。集中器能够正常工作的前提是所有用户都是间歇地工作。</text><text id="ProcessOnText1164" fill="#000000" font-size="19" x="0.0" y="256.975" font-family="微软雅黑" font-weight="normal" font-style="normal" text-decoration="none" family="微软雅黑" text-anchor="start" size="19">----------在每个时隙中还必须有用户的地址信息，这是STDM不可避免的开销。</text><text id="ProcessOnText1165" fill="#000000" font-size="19" x="0.0" y="280.725" font-family="微软雅黑" font-weight="normal" font-style="normal" text-decoration="none" family="微软雅黑" text-anchor="start" size="19"></text><text id="ProcessOnText1166" fill="#000000" font-size="19" x="0.0" y="304.475" font-family="微软雅黑" font-weight="normal" font-style="normal" text-decoration="none" family="微软雅黑" text-anchor="start" size="19">波分复用（Wavelength Division Multiplexing）</text><text id="ProcessOnText1167" fill="#000000" font-size="19" x="0.0" y="328.225" font-family="微软雅黑" font-weight="normal" font-style="normal" text-decoration="none" family="微软雅黑" text-anchor="start" size="19">光载波的频率很高，习惯用波长表示光载波。复用程度高的WDM称为密集波分复用DWDM</text><text id="ProcessOnText1168" fill="#000000" font-size="19" x="0.0" y="351.975" font-family="微软雅黑" font-weight="normal" font-style="normal" text-decoration="none" family="微软雅黑" text-anchor="start" size="19">光载波经光调制后，不同光波的间隔一般为0.8或1.6nm</text><text id="ProcessOnText1169" fill="#000000" font-size="19" x="0.0" y="375.725" font-family="微软雅黑" font-weight="normal" font-style="normal" text-decoration="none" family="微软雅黑" text-anchor="start" size="19">人们在一根光纤中放入尽可能多的光纤，对每一根光纤使用密集波分复用技术</text><text id="ProcessOnText1170" fill="#000000" font-size="19" x="0.0" y="399.475" font-family="微软雅黑" font-weight="normal" font-style="normal" text-decoration="none" family="微软雅黑" text-anchor="start" size="19"></text><text id="ProcessOnText1171" fill="#000000" font-size="19" x="0.0" y="423.225" font-family="微软雅黑" font-weight="normal" font-style="normal" text-decoration="none" family="微软雅黑" text-anchor="start" size="19">码分复用（Code Division Multiplexing）（码分多址CDMA（Code Division Multiple Access））</text><text id="ProcessOnText1172" fill="#000000" font-size="19" x="0.0" y="446.975" font-family="微软雅黑" font-weight="normal" font-style="normal" text-decoration="none" family="微软雅黑" text-anchor="start" size="19">用户在同样的时间使用同样的频带进行通信，各用户使用经过挑选的不同码型，抗干扰能力很强</text></g></g><g id="ProcessOnG1173"><path id="ProcessOnPath1174" d="M231.01388549804688 2813.3993530273438L282.0138854980469 2813.3993530273438L282.0138854980469 2813.3993530273438L317.7778175205471 2813.3993530273438" stroke="#323232" stroke-width="2.0" stroke-dasharray="none" fill="none" marker-end="url(#ProcessOnMarker1175)"/></g><g id="ProcessOnG1177" transform="matrix(1.0,0.0,0.0,1.0,78.01388549804688,2693.6216430664062)" opacity="1.0"><path id="ProcessOnPath1178" d="M0.0 4.0Q0.0 0.0 4.0 0.0L149.0 0.0Q153.0 0.0 153.0 4.0L153.0 49.61102294921875Q153.0 53.61102294921875 149.0 53.61102294921875L4.0 53.61102294921875Q0.0 53.61102294921875 0.0 49.61102294921875Z" stroke="#323232" stroke-width="2.0" stroke-dasharray="none" opacity="1.0" fill="#ffffff"/><g id="ProcessOnG1179" transform="matrix(1.0,0.0,0.0,1.0,10.0,3.055511474609375)"><text id="ProcessOnText1180" fill="#000000" font-size="19" x="65.5" y="19.475" font-family="微软雅黑" font-weight="normal" font-style="normal" text-decoration="none" family="微软雅黑" text-anchor="middle" size="19">复用器multipl</text><text id="ProcessOnText1181" fill="#000000" font-size="19" x="65.5" y="43.225" font-family="微软雅黑" font-weight="normal" font-style="normal" text-decoration="none" family="微软雅黑" text-anchor="middle" size="19">exer</text></g></g><g id="ProcessOnG1182" transform="matrix(1.0,0.0,0.0,1.0,78.01388549804688,2876.6216430664062)" opacity="1.0"><path id="ProcessOnPath1183" d="M0.0 4.0Q0.0 0.0 4.0 0.0L149.0 0.0Q153.0 0.0 153.0 4.0L153.0 49.61102294921875Q153.0 53.61102294921875 149.0 53.61102294921875L4.0 53.61102294921875Q0.0 53.61102294921875 0.0 49.61102294921875Z" stroke="#323232" stroke-width="2.0" stroke-dasharray="none" opacity="1.0" fill="#ffffff"/><g id="ProcessOnG1184" transform="matrix(1.0,0.0,0.0,1.0,10.0,3.055511474609375)"><text id="ProcessOnText1185" fill="#000000" font-size="19" x="65.5" y="19.475" font-family="微软雅黑" font-weight="normal" font-style="normal" text-decoration="none" family="微软雅黑" text-anchor="middle" size="19">分用器</text><text id="ProcessOnText1186" fill="#000000" font-size="19" x="65.5" y="43.225" font-family="微软雅黑" font-weight="normal" font-style="normal" text-decoration="none" family="微软雅黑" text-anchor="middle" size="19">demultiplexer</text></g></g><g id="ProcessOnG1187" transform="matrix(1.0,0.0,0.0,1.0,78.01388549804688,3331.7327270507812)" opacity="1.0"><path id="ProcessOnPath1188" d="M0.0 4.0Q0.0 0.0 4.0 0.0L149.0 0.0Q153.0 0.0 153.0 4.0L153.0 36.0Q153.0 40.0 149.0 40.0L4.0 40.0Q0.0 40.0 0.0 36.0Z" stroke="#323232" stroke-width="2.0" stroke-dasharray="none" opacity="1.0" fill="#ffffff"/><g id="ProcessOnG1189" transform="matrix(1.0,0.0,0.0,1.0,10.0,8.125)"><text id="ProcessOnText1190" fill="#000000" font-size="19" x="65.5" y="19.475" font-family="微软雅黑" font-weight="normal" font-style="normal" text-decoration="none" family="微软雅黑" text-anchor="middle" size="19">宽带接入技术</text></g></g><g id="ProcessOnG1191" transform="matrix(1.0,0.0,0.0,1.0,333.0138854980469,3102.4549560546875)" opacity="1.0"><path id="ProcessOnPath1192" d="M18.0 0.0L0.0 15.0L0.0 483.5555419921875L18.0 498.5555419921875M858.0 498.5555419921875L876.0 483.5555419921875L876.0 15.0L858.0 0.0" stroke="#323232" stroke-width="2.0" stroke-dasharray="none" opacity="1.0" fill="none"/><path id="ProcessOnPath1193" d="M0.0 0.0L876.0 0.0L876.0 498.5555419921875L0.0 498.5555419921875Z" stroke="none" stroke-width="0.0" stroke-dasharray="none" opacity="1.0" fill="none"/><g id="ProcessOnG1194" transform="matrix(1.0,0.0,0.0,1.0,10.0,11.77777099609375)"><text id="ProcessOnText1195" fill="#000000" font-size="19" x="0.0" y="19.475" font-family="微软雅黑" font-weight="normal" font-style="normal" text-decoration="none" family="微软雅黑" text-anchor="start" size="19">非对称数字用户线ADSL（Asymmetric Digital Subscriber Line）：用数字技术对现有的模拟电话用</text><text id="ProcessOnText1196" fill="#000000" font-size="19" x="0.0" y="43.225" font-family="微软雅黑" font-weight="normal" font-style="normal" text-decoration="none" family="微软雅黑" text-anchor="start" size="19">户线进行改造，使它能够承载宽带数字业务。ADSL把低端频谱留给传统电话，把以前未被使用的高端</text><text id="ProcessOnText1197" fill="#000000" font-size="19" x="0.0" y="66.975" font-family="微软雅黑" font-weight="normal" font-style="normal" text-decoration="none" family="微软雅黑" text-anchor="start" size="19">频谱留给用户上网使用。由于下行宽带远远大于上行宽带，所以称为非对称。ADSL在用户线两端各安</text><text id="ProcessOnText1198" fill="#000000" font-size="19" x="0.0" y="90.725" font-family="微软雅黑" font-weight="normal" font-style="normal" text-decoration="none" family="微软雅黑" text-anchor="start" size="19">装一个调制解调器，但不能保证固定的数据率。ADSL最大的好处是可以利用现有电话网中的用户线而</text><text id="ProcessOnText1199" fill="#000000" font-size="19" x="0.0" y="114.475" font-family="微软雅黑" font-weight="normal" font-style="normal" text-decoration="none" family="微软雅黑" text-anchor="start" size="19">不需要重新布线。ADSL很受居民用户欢迎，但不适合企业。</text><text id="ProcessOnText1200" fill="#000000" font-size="19" x="0.0" y="138.225" font-family="微软雅黑" font-weight="normal" font-style="normal" text-decoration="none" family="微软雅黑" text-anchor="start" size="19">-----对称数字用户线SDSL（Symmetric DSL）：把宽带平均分配到下行和上行两个方向</text><text id="ProcessOnText1201" fill="#000000" font-size="19" x="0.0" y="161.975" font-family="微软雅黑" font-weight="normal" font-style="normal" text-decoration="none" family="微软雅黑" text-anchor="start" size="19">-----甚高速数字用户线VDSL：在欧洲很受欢迎，但国内并不普遍</text><text id="ProcessOnText1202" fill="#000000" font-size="19" x="0.0" y="185.725" font-family="微软雅黑" font-weight="normal" font-style="normal" text-decoration="none" family="微软雅黑" text-anchor="start" size="19"></text><text id="ProcessOnText1203" fill="#000000" font-size="19" x="0.0" y="209.475" font-family="微软雅黑" font-weight="normal" font-style="normal" text-decoration="none" family="微软雅黑" text-anchor="start" size="19">光纤同轴混合网HFC（Hybrid Fiber Coax）：在有线电视网的基础上开发的居民宽带接入网</text><text id="ProcessOnText1204" fill="#000000" font-size="19" x="0.0" y="233.225" font-family="微软雅黑" font-weight="normal" font-style="normal" text-decoration="none" family="微软雅黑" text-anchor="start" size="19">最早的有线电视网使用同轴电缆。HFC网把原有线电视网中的同轴电缆主干部分改为光纤</text><text id="ProcessOnText1205" fill="#000000" font-size="19" x="0.0" y="256.975" font-family="微软雅黑" font-weight="normal" font-style="normal" text-decoration="none" family="微软雅黑" text-anchor="start" size="19">光纤从头端点连接到光纤节点，在光纤节点被转化为电信号，通过同轴电缆传送到家庭</text><text id="ProcessOnText1206" fill="#000000" font-size="19" x="0.0" y="280.725" font-family="微软雅黑" font-weight="normal" font-style="normal" text-decoration="none" family="微软雅黑" text-anchor="start" size="19">在HFC中使用电缆调制解调器，不需要成对使用。它需要解决共享信道中可能出现的冲突问题</text><text id="ProcessOnText1207" fill="#000000" font-size="19" x="0.0" y="304.475" font-family="微软雅黑" font-weight="normal" font-style="normal" text-decoration="none" family="微软雅黑" text-anchor="start" size="19">ADSL的电话用户线是用户专用的，而HFC的同轴电缆是共享的，具有不确定的最高数据率</text><text id="ProcessOnText1208" fill="#000000" font-size="19" x="0.0" y="328.225" font-family="微软雅黑" font-weight="normal" font-style="normal" text-decoration="none" family="微软雅黑" text-anchor="start" size="19"></text><text id="ProcessOnText1209" fill="#000000" font-size="19" x="0.0" y="351.975" font-family="微软雅黑" font-weight="normal" font-style="normal" text-decoration="none" family="微软雅黑" text-anchor="start" size="19">FTTx（Fiber To The X）：光纤到户（FTTH）指只有光纤进入用户家门后，才把光信号转化为电信号</text><text id="ProcessOnText1210" fill="#000000" font-size="19" x="0.0" y="375.725" font-family="微软雅黑" font-weight="normal" font-style="normal" text-decoration="none" family="微软雅黑" text-anchor="start" size="19">在光纤干线和广大用户间有一段转换装置：光配线网ODN（Optical Distribution Network）</text><text id="ProcessOnText1211" fill="#000000" font-size="19" x="0.0" y="399.475" font-family="微软雅黑" font-weight="normal" font-style="normal" text-decoration="none" family="微软雅黑" text-anchor="start" size="19">使数十个家庭用户能共享一根光纤干线。</text><text id="ProcessOnText1212" fill="#000000" font-size="19" x="0.0" y="423.225" font-family="微软雅黑" font-weight="normal" font-style="normal" text-decoration="none" family="微软雅黑" text-anchor="start" size="19">光线路终端OLT（Optical Line Terminal）是连接到光纤干线的终端设备，它把收到的下行数据发往1</text><text id="ProcessOnText1213" fill="#000000" font-size="19" x="0.0" y="446.975" font-family="微软雅黑" font-weight="normal" font-style="normal" text-decoration="none" family="微软雅黑" text-anchor="start" size="19">：N光分路器，用广播方式向所有用户的光网络单元ONU（Optical Network Unit）发送。</text><text id="ProcessOnText1214" fill="#000000" font-size="19" x="0.0" y="470.725" font-family="微软雅黑" font-weight="normal" font-style="normal" text-decoration="none" family="微软雅黑" text-anchor="start" size="19">从总的趋势来看，光网络单元ONU越来越靠近用户家庭，就有了“光进铜退”的说法。</text></g></g><g id="ProcessOnG1215"><path id="ProcessOnPath1216" d="M231.01388549804688 3351.7327270507812L282.0138854980469 3351.7327270507812L282.0138854980469 3351.7327270507812L317.7778175205471 3351.7327270507812" stroke="#323232" stroke-width="2.0" stroke-dasharray="none" fill="none" marker-end="url(#ProcessOnMarker1217)"/></g></g></g></svg>